<svg width="327" height="262" viewBox="0 0 327 262" fill="none" xmlns="http://www.w3.org/2000/svg">
<path d="M249.833 75.7276C249.244 76.9668 249.332 78.4213 250.065 79.5811C250.798 80.7408 252.074 81.444 253.446 81.444H272.603C300.333 81.444 322.813 103.924 322.813 131.655C322.813 145.341 317.343 157.741 308.461 166.802C306.936 168.357 306.936 170.847 308.461 172.402C317.343 181.463 322.813 193.864 322.813 207.55C322.813 235.28 300.333 257.761 272.603 257.761H54.2108C26.4801 257.761 4 235.28 4 207.55C4 193.864 9.47039 181.463 18.3529 172.402C19.8777 170.847 19.8777 168.357 18.3529 166.802C9.47039 157.741 4 145.341 4 131.655C4 117.604 9.76585 104.908 19.0707 95.7897C19.8385 95.0374 20.2711 94.0077 20.2711 92.9327C20.2711 91.8578 19.8385 90.8281 19.0707 90.0758C9.76585 80.9577 4 68.2612 4 54.2108C4 26.4801 26.4801 4 54.2108 4H204.452C232.183 4 254.663 26.4801 254.663 54.2108C254.663 61.9189 252.929 69.2109 249.833 75.7276Z" fill="#EBC191" stroke="black" stroke-width="8" stroke-linejoin="round"/>
<path d="M57.6802 230.783C52.3521 230.783 48.4695 230.143 46.0326 228.862C43.5957 227.582 42.0262 225.537 41.3241 222.729C40.6219 219.92 40.2708 215.542 40.2708 209.594C40.2708 203.564 40.6012 199.083 41.2621 196.15C41.9643 193.176 43.5131 190.987 45.9087 189.583C48.3456 188.137 52.2075 187.414 57.4943 187.414C60.6747 187.414 63.917 188.158 67.2213 189.645C70.5256 191.09 73.3136 193.486 75.5853 196.832C77.8569 200.177 78.9928 204.452 78.9928 209.656C78.9928 214.654 77.8363 218.743 75.5233 221.923C73.2103 225.062 70.4223 227.334 67.1594 228.738C63.8964 230.101 60.7367 230.783 57.6802 230.783ZM53.839 219.879C55.1607 220.044 56.1107 220.127 56.6889 220.127C59.6215 220.127 61.8932 219.342 63.504 217.772C65.1148 216.203 65.9202 214.034 65.9202 211.267C65.9202 208.789 65.1355 206.868 63.566 205.505C61.9964 204.101 59.7867 203.399 56.9368 203.399C55.8629 203.399 54.8303 203.481 53.839 203.647V219.879Z" fill="white"/>
<path d="M102.6 230.845C98.8415 230.886 95.3514 229.957 92.1297 228.057C88.9493 226.157 86.3885 223.555 84.4473 220.251C82.5473 216.905 81.556 213.208 81.4734 209.161C81.4321 205.278 82.3408 201.685 84.1994 198.38C86.0581 195.076 88.6189 192.453 91.8819 190.512C95.1449 188.53 98.7176 187.538 102.6 187.538C106.4 187.497 109.911 188.447 113.132 190.388C116.395 192.329 118.977 194.994 120.877 198.38C122.777 201.767 123.727 205.505 123.727 209.594C123.727 213.436 122.777 216.967 120.877 220.189C118.977 223.41 116.395 225.971 113.132 227.871C109.911 229.771 106.4 230.762 102.6 230.845ZM102.786 218.764C104.686 218.764 106.297 218.082 107.618 216.719C108.982 215.356 109.642 213.58 109.601 211.391C109.601 209.161 108.94 207.364 107.618 206.001C106.297 204.638 104.686 203.956 102.786 203.956C100.886 203.956 99.2752 204.638 97.9535 206.001C96.6318 207.364 95.9709 209.161 95.9709 211.391C95.9709 213.58 96.6318 215.356 97.9535 216.719C99.2752 218.082 100.886 218.764 102.786 218.764Z" fill="white"/>
<path d="M134.067 230.783C132.043 230.783 130.391 229.544 129.11 227.066C127.871 224.587 126.983 221.593 126.446 218.082C125.909 214.571 125.641 211.184 125.641 207.922C125.641 202.593 126.487 197.864 128.181 193.734C129.916 189.562 132.807 187.476 136.855 187.476C138.631 187.476 140.179 188.158 141.501 189.521C142.864 190.884 144.041 192.66 145.033 194.849C146.024 196.997 147.222 199.991 148.626 203.832L149.679 206.744C149.597 205.175 149.555 204.018 149.555 203.275C149.555 198.442 150.196 194.601 151.476 191.751C152.798 188.901 154.884 187.476 157.733 187.476C161.162 187.476 163.516 189.521 164.796 193.61C166.077 197.658 166.717 202.428 166.717 207.922C166.717 211.184 166.304 214.571 165.478 218.082C164.693 221.593 163.351 224.587 161.451 227.066C159.551 229.544 157.073 230.783 154.016 230.783C152.157 230.783 150.526 230.122 149.122 228.8C147.759 227.437 146.602 225.765 145.652 223.782C144.744 221.799 143.649 219.073 142.369 215.604C141.708 213.787 141.191 212.424 140.82 211.515L140.882 216.533C140.882 219.796 140.716 222.44 140.386 224.464C140.056 226.446 139.395 227.995 138.403 229.11C137.453 230.225 136.008 230.783 134.067 230.783Z" fill="white"/>
<path d="M178.868 230.907C176.101 230.907 173.87 229.565 172.177 226.88C170.525 224.154 169.554 220.478 169.265 215.852C169.224 215.191 169.203 214.22 169.203 212.94C169.203 207.942 170.029 203.523 171.681 199.681C173.333 195.799 175.667 192.804 178.682 190.698C181.738 188.55 185.291 187.476 189.338 187.476C193.386 187.476 196.918 188.55 199.933 190.698C202.989 192.804 205.323 195.778 206.934 199.62C208.586 203.461 209.412 207.901 209.412 212.94C209.412 214.22 209.391 215.191 209.35 215.852C209.061 220.56 208.09 224.236 206.438 226.88C204.786 229.523 202.555 230.845 199.747 230.845C197.475 230.845 195.885 230.225 194.976 228.986C194.109 227.747 193.675 226.24 193.675 224.464C193.675 223.637 193.737 222.915 193.861 222.295C191.713 222.378 189.813 222.419 188.161 222.419C187.129 222.419 185.993 222.378 184.754 222.295C184.878 222.915 184.94 223.637 184.94 224.464C184.94 226.281 184.485 227.809 183.576 229.048C182.709 230.287 181.14 230.907 178.868 230.907ZM184.32 211.267C186.55 211.185 188.182 211.143 189.214 211.143C190.33 211.143 191.961 211.185 194.109 211.267C194.191 210.813 194.233 210.131 194.233 209.223C194.233 207.281 193.82 205.712 192.994 204.514C192.168 203.275 190.887 202.655 189.152 202.655C187.459 202.655 186.199 203.254 185.373 204.452C184.547 205.65 184.134 207.199 184.134 209.099C184.134 209.801 184.196 210.524 184.32 211.267Z" fill="white"/>
<path d="M251.969 196.646C251.969 199.372 250.833 201.354 248.562 202.593C246.331 203.791 242.676 204.514 237.596 204.762C237.761 206.744 237.843 209.305 237.843 212.444C237.843 216.822 237.596 220.333 237.1 222.977C236.646 225.579 235.84 227.52 234.684 228.8C233.527 230.04 231.916 230.659 229.851 230.659C227.827 230.659 226.278 229.998 225.205 228.677C224.131 227.355 223.387 225.393 222.974 222.791C222.561 220.189 222.355 216.74 222.355 212.444C222.355 209.553 222.417 206.992 222.54 204.762C219.112 204.597 216.345 204.246 214.238 203.709C212.173 203.13 210.645 202.284 209.654 201.168C208.663 200.053 208.167 198.546 208.167 196.646C208.167 194.333 208.952 192.515 210.521 191.194C212.091 189.872 214.445 188.943 217.584 188.406C220.723 187.869 224.833 187.6 229.913 187.6C235.035 187.6 239.186 187.869 242.366 188.406C245.546 188.943 247.942 189.872 249.553 191.194C251.164 192.515 251.969 194.333 251.969 196.646Z" fill="white"/>
<path d="M282.887 220.87C284.869 221.49 285.861 222.791 285.861 224.773C285.861 226.632 284.911 228.098 283.011 229.172C281.111 230.246 277.827 230.783 273.16 230.783C267.336 230.783 262.338 229.379 258.167 226.57C254.036 223.761 251.971 218.185 251.971 209.842C251.971 205.629 252.694 201.829 254.14 198.442C255.585 195.056 257.733 192.371 260.583 190.388C263.474 188.406 267.006 187.414 271.177 187.414C276.753 187.414 280.677 188.282 282.949 190.016C285.22 191.71 286.356 193.796 286.356 196.274C286.356 197.43 286.067 198.504 285.489 199.496C284.911 200.446 284.043 201.189 282.887 201.726C281.895 202.222 280.615 202.469 279.046 202.469L277.373 202.408C277.042 202.366 276.567 202.346 275.948 202.346C273.8 202.346 272.107 202.738 270.867 203.523C269.628 204.266 268.782 205.423 268.327 206.992C270.062 206.91 271.632 206.868 273.036 206.868C277.208 206.868 279.913 206.992 281.152 207.24C282.556 207.529 283.63 208.087 284.374 208.913C285.158 209.739 285.551 210.71 285.551 211.825C285.551 212.94 285.179 213.911 284.436 214.737C283.692 215.521 282.577 216.058 281.09 216.347C279.934 216.595 277.125 216.719 272.664 216.719C270.847 216.719 269.566 216.699 268.823 216.657C270.103 219.383 272.499 220.746 276.01 220.746C276.216 220.746 276.691 220.705 277.435 220.622C278.426 220.54 279.273 220.498 279.975 220.498C281.173 220.498 282.143 220.622 282.887 220.87Z" fill="white"/>
<path d="M81.5949 127.109C81.5949 132.231 80.3558 136.32 77.8776 139.376C75.3994 142.392 71.9919 144.395 67.655 145.386C67.6963 145.964 67.717 146.852 67.717 148.05C67.717 150.363 67.0354 152.16 65.6724 153.44C64.3507 154.679 62.7605 155.299 60.9019 155.299C58.9193 155.299 57.1846 154.659 55.6976 153.378C54.2107 152.057 53.4673 150.281 53.4673 148.05C53.4673 146.77 53.4879 145.84 53.5292 145.262C49.4402 144.188 46.1979 142.185 43.8023 139.253C41.448 136.32 40.2708 132.52 40.2708 127.853C40.2708 122.938 41.0969 119.076 42.749 116.267C44.4012 113.459 46.8381 112.054 50.0597 112.054C52.3727 112.054 54.2107 112.756 55.5737 114.161C56.9368 115.524 57.6183 117.424 57.6183 119.861C57.6183 120.521 57.515 122.05 57.3085 124.445C57.1433 125.932 57.0607 126.862 57.0607 127.233C57.0607 128.968 57.3498 130.29 57.928 131.198C58.5476 132.107 59.5389 132.561 60.9019 132.561C62.2649 132.561 63.2355 132.107 63.8138 131.198C64.4333 130.29 64.7431 128.968 64.7431 127.233C64.7431 126.82 64.6605 125.87 64.4953 124.383C64.2888 121.905 64.1855 120.377 64.1855 119.799C64.1855 117.403 64.8877 115.524 66.292 114.161C67.6963 112.756 69.5343 112.054 71.806 112.054C75.0277 112.054 77.4646 113.417 79.1167 116.143C80.7688 118.869 81.5949 122.525 81.5949 127.109Z" fill="white"/>
<path d="M104.597 155.361C100.838 155.402 97.348 154.473 94.1263 152.573C90.9459 150.673 88.3851 148.071 86.4439 144.767C84.5439 141.421 83.5526 137.724 83.47 133.677C83.4287 129.794 84.3374 126.201 86.196 122.896C88.0547 119.592 90.6155 116.969 93.8785 115.028C97.1415 113.046 100.714 112.054 104.597 112.054C108.397 112.013 111.907 112.963 115.129 114.904C118.392 116.845 120.974 119.51 122.873 122.896C124.773 126.283 125.723 130.021 125.723 134.11C125.723 137.952 124.773 141.483 122.873 144.705C120.974 147.926 118.392 150.487 115.129 152.387C111.907 154.287 108.397 155.278 104.597 155.361ZM104.783 143.28C106.683 143.28 108.293 142.598 109.615 141.235C110.978 139.872 111.639 138.096 111.598 135.907C111.598 133.677 110.937 131.88 109.615 130.517C108.293 129.154 106.683 128.472 104.783 128.472C102.883 128.472 101.272 129.154 99.9501 130.517C98.6284 131.88 97.9675 133.677 97.9675 135.907C97.9675 138.096 98.6284 139.872 99.9501 141.235C101.272 142.598 102.883 143.28 104.783 143.28Z" fill="white"/>
<path d="M150.112 155.299C145.486 155.299 141.521 154.266 138.217 152.201C134.913 150.095 132.414 147.307 130.721 143.837C129.068 140.326 128.242 136.506 128.242 132.376C128.242 126.676 128.903 121.843 130.225 117.878C131.547 113.913 134.128 111.93 137.969 111.93C140.984 111.93 143.153 112.818 144.475 114.594C145.796 116.37 146.457 118.56 146.457 121.162C146.457 122.896 146.292 124.92 145.961 127.233C145.631 129.464 145.466 131.343 145.466 132.871C145.466 134.895 145.817 136.63 146.519 138.075C147.221 139.521 148.419 140.244 150.112 140.244C151.847 140.244 153.045 139.521 153.706 138.075C154.408 136.63 154.759 134.895 154.759 132.871C154.759 131.343 154.594 129.464 154.263 127.233C153.933 124.92 153.768 122.896 153.768 121.162C153.768 118.56 154.429 116.37 155.75 114.594C157.072 112.818 159.241 111.93 162.256 111.93C166.097 111.93 168.678 113.913 170 117.878C171.322 121.843 171.983 126.676 171.983 132.376C171.983 136.506 171.136 140.326 169.442 143.837C167.79 147.307 165.312 150.095 162.008 152.201C158.704 154.266 154.738 155.299 150.112 155.299Z" fill="white"/>
<path d="M211.53 129.464C211.53 132.479 211.076 135.143 210.167 137.456C209.3 139.769 208.061 141.71 206.45 143.28C207.813 145.386 208.495 147.431 208.495 149.413C208.495 151.107 207.834 152.511 206.512 153.626C205.232 154.741 203.765 155.299 202.113 155.299C201.163 155.299 200.296 155.154 199.511 154.865C198.726 154.576 197.88 154.081 196.971 153.378C196.186 152.759 195.443 151.912 194.741 150.838C194.038 149.764 193.481 148.649 193.068 147.493C191.705 147.327 190.342 146.976 188.979 146.439C189.227 147.761 189.35 148.773 189.35 149.475C189.35 153.399 187.306 155.361 183.217 155.361C179.789 155.361 177.372 153.358 175.968 149.351C174.564 145.345 173.862 140.45 173.862 134.668C173.862 130.744 174.564 127.068 175.968 123.64C177.414 120.17 179.603 117.382 182.535 115.276C185.468 113.128 189.041 112.054 193.254 112.054C196.64 112.054 199.718 112.777 202.485 114.223C205.252 115.627 207.441 117.651 209.052 120.294C210.704 122.938 211.53 125.994 211.53 129.464ZM188.359 132.376C188.359 133.78 188.917 135.019 190.032 136.093C191.147 137.125 192.428 137.642 193.873 137.642C195.36 137.642 196.64 137.125 197.714 136.093C198.83 135.019 199.387 133.78 199.387 132.376C199.387 130.93 198.83 129.691 197.714 128.658C196.64 127.584 195.36 127.047 193.873 127.047C192.428 127.047 191.147 127.584 190.032 128.658C188.917 129.732 188.359 130.971 188.359 132.376Z" fill="white"/>
<path d="M63.3801 56.1933C67.0561 57.8868 70.1745 59.9313 72.7353 62.3269C75.3374 64.7225 76.6385 67.3246 76.6385 70.1333C76.6385 72.6115 75.957 74.4495 74.594 75.6473C73.231 76.8451 71.5582 77.444 69.5756 77.444C66.7257 77.444 64.0409 76.1429 61.5214 73.5408C59.0432 70.8974 56.6476 67.4485 54.3346 63.1943C54.3346 66.1268 54.1694 68.5844 53.839 70.5669C53.5499 72.5495 52.889 74.2016 51.8564 75.5234C50.8238 76.8038 49.275 77.444 47.2098 77.444C45.062 77.444 43.4718 76.6385 42.4392 75.0277C41.448 73.4169 40.8284 71.4756 40.5806 69.2039C40.3741 66.9322 40.2708 63.9584 40.2708 60.2824C40.2708 57.6803 40.2915 54.6032 40.3328 51.0511C40.4154 47.4577 40.498 45.2273 40.5806 44.3599C40.6632 41.2621 41.3034 38.7839 42.5012 36.9253C43.699 35.0253 45.3924 34.0753 47.5815 34.0753C50.101 34.0753 51.8564 35.1492 52.8477 37.297C53.8803 39.4448 54.3966 42.7284 54.3966 47.1479V49.0065C56.5031 45.2066 58.94 41.7991 61.7073 38.7839C64.4746 35.7688 67.242 34.2612 70.0093 34.2612C71.9506 34.2612 73.5407 35.0047 74.7798 36.4916C76.0602 37.9372 76.7004 39.7339 76.7004 41.8817C76.7004 44.7729 75.4613 47.5403 72.9831 50.1837C70.5462 52.7858 67.3452 54.789 63.3801 56.1933Z" fill="white"/>
<path d="M86.3296 77.444C84.3058 77.444 82.6536 76.2049 81.3732 73.7267C80.1341 71.2484 79.2461 68.2539 78.7092 64.7432C78.1722 61.2324 77.9037 57.8455 77.9037 54.5825C77.9037 49.2544 78.7505 44.5251 80.4439 40.3948C82.1786 36.2231 85.0699 34.1373 89.1176 34.1373C90.8937 34.1373 92.4425 34.8188 93.7643 36.1818C95.1273 37.5448 96.3044 39.3209 97.2957 41.51C98.287 43.6577 99.4848 46.6522 100.889 50.4935L101.942 53.4054C101.86 51.8358 101.818 50.6793 101.818 49.9359C101.818 45.1034 102.459 41.2621 103.739 38.4122C105.061 35.5623 107.147 34.1373 109.997 34.1373C113.425 34.1373 115.779 36.1818 117.059 40.2709C118.34 44.3186 118.98 49.0892 118.98 54.5825C118.98 57.8455 118.567 61.2324 117.741 64.7432C116.956 68.2539 115.614 71.2484 113.714 73.7267C111.814 76.2049 109.336 77.444 106.279 77.444C104.421 77.444 102.789 76.7831 101.385 75.4614C100.022 74.0984 98.8652 72.4256 97.9153 70.443C97.0066 68.4605 95.912 65.7344 94.6316 62.2649C93.9708 60.4476 93.4545 59.0846 93.0827 58.1759L93.1447 63.1943C93.1447 66.4572 92.9795 69.1007 92.6491 71.1245C92.3186 73.1071 91.6578 74.656 90.6665 75.7712C89.7165 76.8864 88.2709 77.444 86.3296 77.444Z" fill="white"/>
<path d="M141.988 77.5059C138.229 77.5472 134.739 76.6179 131.517 74.7179C128.337 72.818 125.776 70.2159 123.835 66.9116C121.935 63.566 120.944 59.8693 120.861 55.8216C120.82 51.9391 121.728 48.3457 123.587 45.0414C125.446 41.7371 128.006 39.1144 131.269 37.1731C134.532 35.1905 138.105 34.1993 141.988 34.1993C145.788 34.158 149.298 35.1079 152.52 37.0492C155.783 38.9905 158.364 41.6545 160.264 45.0414C162.164 48.4283 163.114 52.1663 163.114 56.2553C163.114 60.0965 162.164 63.628 160.264 66.8496C158.364 70.0713 155.783 72.6321 152.52 74.5321C149.298 76.432 145.788 77.4233 141.988 77.5059ZM142.174 65.4247C144.073 65.4247 145.684 64.7432 147.006 63.3801C148.369 62.0171 149.03 60.2411 148.989 58.052C148.989 55.8216 148.328 54.0249 147.006 52.6619C145.684 51.2989 144.073 50.6174 142.174 50.6174C140.274 50.6174 138.663 51.2989 137.341 52.6619C136.019 54.0249 135.358 55.8216 135.358 58.052C135.358 60.2411 136.019 62.0171 137.341 63.3801C138.663 64.7432 140.274 65.4247 142.174 65.4247Z" fill="white"/>
<path d="M181.322 77.444C178.018 77.444 175.127 76.5353 172.649 74.7179C170.212 72.9006 168.332 70.3191 167.011 66.9735C165.689 63.628 165.028 59.6835 165.028 55.1401C165.028 52.4967 165.462 49.6674 166.329 46.6522C167.238 43.6371 168.518 41.0969 170.17 39.0318C171.864 36.9253 173.826 35.8721 176.056 35.8721C177.874 35.8721 179.381 36.5329 180.579 37.8546C181.777 39.1763 182.376 40.8078 182.376 42.7491C182.376 43.3273 182.231 44.1121 181.942 45.1034C181.694 46.0533 181.405 47.0446 181.075 48.0772C180.455 49.8533 179.98 51.4228 179.65 52.7858C179.319 54.1075 179.154 55.3879 179.154 56.627C179.154 58.4444 179.422 59.7661 179.959 60.5922C180.496 61.4182 181.157 61.8313 181.942 61.8313C182.975 61.8313 183.697 61.315 184.11 60.2824C184.565 59.2085 184.792 57.2466 184.792 54.3966L184.73 50.1217C184.73 46.8175 185.164 44.1947 186.031 42.2534C186.898 40.2709 188.633 39.2796 191.235 39.2796C193.176 39.2796 194.643 39.8165 195.634 40.8904C196.625 41.9643 197.266 43.3273 197.555 44.9795C197.844 46.5903 197.988 48.5522 197.988 50.8652V54.0249C197.988 57.0401 198.236 59.1878 198.732 60.4682C199.269 61.7074 200.115 62.3269 201.272 62.3269C202.057 62.3269 202.656 61.9345 203.069 61.1498C203.523 60.3237 203.75 59.1052 203.75 57.4944C203.75 56.2966 203.606 55.0988 203.316 53.901C203.027 52.7032 202.573 51.175 201.953 49.3163C201.417 47.5403 201.024 46.2186 200.776 45.3512C200.57 44.4425 200.467 43.5751 200.467 42.7491C200.467 40.8078 201.086 39.197 202.325 37.9166C203.606 36.6362 205.093 35.996 206.786 35.996C209.223 35.996 211.267 37.0285 212.92 39.0937C214.613 41.1176 215.873 43.6164 216.699 46.5903C217.525 49.5641 217.938 52.4141 217.938 55.1401C217.938 59.6835 217.277 63.628 215.955 66.9735C214.634 70.3191 212.734 72.9006 210.255 74.7179C207.819 76.494 204.948 77.382 201.644 77.382C199.826 77.382 198.05 76.969 196.316 76.1429C194.581 75.3168 192.97 74.0777 191.483 72.4256C189.996 74.0777 188.365 75.3375 186.589 76.2049C184.854 77.0309 183.098 77.444 181.322 77.444Z" fill="white"/>
<path fill-rule="evenodd" clip-rule="evenodd" d="M33.725 194.37L33.7159 194.409L33.7072 194.448C32.8496 198.253 32.5264 203.443 32.5264 209.594C32.5264 215.657 32.8665 220.83 33.8109 224.607C35.0168 229.431 37.9289 233.353 42.4305 235.718C46.599 237.908 52.0634 238.527 57.6802 238.527C61.9095 238.527 66.0827 237.581 70.1444 235.884L70.1827 235.868L70.2209 235.852C74.2524 234.117 77.6798 231.478 80.5062 228.11C82.6493 230.728 85.2039 232.941 88.158 234.705L88.1768 234.717L88.1957 234.728C92.6405 237.349 97.5216 238.646 102.685 238.589L102.727 238.588L102.768 238.587C107.866 238.477 112.671 237.13 117.051 234.551C118.953 233.441 120.696 232.154 122.269 230.696C124.311 234.605 128.112 238.527 134.067 238.527C137.348 238.527 141.102 237.579 143.929 234.547C146.692 237.098 150.158 238.527 154.016 238.527C159.132 238.527 163.562 236.463 166.832 232.713C169.695 236.311 173.776 238.651 178.868 238.651C182.104 238.651 186.363 237.815 189.307 234.292C192.266 237.734 196.463 238.589 199.747 238.589C205.557 238.589 210.123 235.596 213.005 230.984C214.097 229.238 214.932 227.323 215.558 225.291C216.144 228.172 217.211 231.119 219.194 233.56C222.021 237.039 225.984 238.403 229.851 238.403C233.558 238.403 237.412 237.227 240.345 234.085L240.388 234.038L240.431 233.991C242.943 231.21 244.135 227.676 244.72 224.357C244.978 222.974 245.172 221.465 245.31 219.841C246.605 225.156 249.2 229.838 253.812 232.974L253.827 232.984L253.842 232.994C259.484 236.793 266.045 238.527 273.16 238.527C277.965 238.527 283.036 238.054 286.821 235.914C290.646 233.752 293.605 229.96 293.605 224.773C293.605 222.599 293.076 220.201 291.585 218.041C292.709 216.177 293.295 214.056 293.295 211.825C293.295 209.284 292.521 206.925 291.108 204.937C291.465 204.496 291.798 204.025 292.104 203.522L292.142 203.46L292.178 203.398C293.453 201.212 294.101 198.79 294.101 196.274C294.101 190.991 291.503 186.747 287.61 183.832C283.204 180.49 277.064 179.67 271.177 179.67C265.745 179.67 260.613 180.977 256.203 184.001L256.182 184.016L256.16 184.031C255.597 184.422 255.054 184.833 254.532 185.261L254.465 185.207C251.39 182.683 247.5 181.418 243.655 180.769C239.877 180.131 235.247 179.856 229.913 179.856C224.62 179.856 220.025 180.131 216.278 180.772C212.484 181.421 208.619 182.689 205.573 185.236C205.185 184.932 204.786 184.639 204.377 184.355C199.938 181.209 194.818 179.732 189.338 179.732C183.84 179.732 178.707 181.218 174.238 184.356C172.908 185.286 171.687 186.325 170.573 187.462C169.71 185.895 168.595 184.418 167.148 183.162C164.418 180.792 161.114 179.732 157.733 179.732C154.957 179.732 152.154 180.449 149.663 182.15C148.738 182.782 147.925 183.503 147.212 184.283C147.147 184.217 147.083 184.15 147.017 184.085C144.354 181.36 140.859 179.732 136.855 179.732C133.433 179.732 130.059 180.64 127.119 182.76C125.174 184.164 123.659 185.925 122.489 187.863C120.881 186.298 119.086 184.921 117.11 183.743C112.661 181.067 107.756 179.745 102.559 179.794C97.3108 179.801 92.3684 181.162 87.8921 183.874C84.9886 185.606 82.474 187.759 80.3762 190.304C77.6548 186.953 74.3237 184.307 70.3636 182.566C66.2102 180.703 61.9006 179.67 57.4944 179.67C51.8432 179.67 46.2529 180.382 41.9767 182.911C37.5709 185.499 34.8581 189.571 33.725 194.37ZM78.9928 209.656C78.9928 214.163 78.0524 217.931 76.1716 220.96C75.9667 221.29 75.7506 221.611 75.5233 221.923C73.2103 225.062 70.4223 227.334 67.1594 228.738C63.8964 230.101 60.7367 230.783 57.6802 230.783C52.3521 230.783 48.4696 230.143 46.0327 228.862C43.5957 227.582 42.0262 225.537 41.3241 222.729C40.6219 219.92 40.2708 215.542 40.2708 209.594C40.2708 203.564 40.6012 199.083 41.2621 196.15C41.9643 193.176 43.5131 190.987 45.9087 189.583C48.3456 188.137 52.2075 187.414 57.4944 187.414C60.6747 187.414 63.917 188.158 67.2213 189.645C70.5256 191.09 73.3136 193.486 75.5853 196.832C75.7334 197.05 75.8768 197.272 76.0153 197.498C77.9361 200.634 78.9276 204.53 78.9897 209.187L78.99 209.211C78.9919 209.359 78.9928 209.507 78.9928 209.656ZM61.5834 204.245C62.3302 204.571 62.991 204.991 63.566 205.505C65.1355 206.868 65.9203 208.789 65.9203 211.267C65.9203 214.034 65.1148 216.203 63.504 217.772C62.9437 218.318 62.3035 218.769 61.5834 219.125C60.9048 219.461 60.1552 219.712 59.3346 219.879C58.5223 220.044 57.6404 220.127 56.6889 220.127C56.1107 220.127 55.1607 220.044 53.839 219.879V203.647C54.8303 203.481 55.8629 203.399 56.9368 203.399C57.9143 203.399 58.8165 203.481 59.6434 203.647C60.3442 203.787 60.9908 203.986 61.5834 204.245ZM92.1297 228.057C89.149 226.276 86.7125 223.879 84.8202 220.865C84.6934 220.663 84.5691 220.458 84.4473 220.251C82.6251 217.042 81.6388 213.511 81.4881 209.656C81.4817 209.492 81.4768 209.326 81.4734 209.161C81.4321 205.278 82.3408 201.685 84.1995 198.38C84.3496 198.114 84.5042 197.851 84.6635 197.593C86.4763 194.657 88.8824 192.297 91.8819 190.512C95.1449 188.53 98.7176 187.538 102.6 187.538C106.4 187.497 109.911 188.447 113.133 190.388C115.574 191.841 117.635 193.699 119.313 195.961C119.878 196.722 120.399 197.528 120.877 198.38C122.515 201.3 123.447 204.48 123.673 207.922C123.709 208.472 123.727 209.03 123.727 209.594C123.727 212.899 123.024 215.975 121.617 218.821C121.389 219.283 121.142 219.739 120.877 220.189C120.418 220.968 119.918 221.708 119.379 222.41C117.689 224.61 115.607 226.431 113.133 227.871C109.911 229.771 106.4 230.762 102.6 230.845C98.8415 230.886 95.3514 229.957 92.1297 228.057ZM107.618 206.001C108.94 207.364 109.601 209.161 109.601 211.391C109.642 213.58 108.982 215.356 107.618 216.719C106.297 218.082 104.686 218.764 102.786 218.764C100.886 218.764 99.2752 218.082 97.9535 216.719C96.6318 215.356 95.9709 213.58 95.9709 211.391C95.9709 209.161 96.6318 207.364 97.9535 206.001C99.2752 204.638 100.886 203.956 102.786 203.956C104.686 203.956 106.297 204.638 107.618 206.001ZM129.11 227.066C128.602 226.049 128.152 224.944 127.762 223.753C127.201 222.042 126.763 220.152 126.446 218.082C126 215.167 125.74 212.338 125.664 209.594C125.648 209.033 125.641 208.476 125.641 207.922C125.641 203.056 126.347 198.689 127.759 194.822C127.893 194.455 128.034 194.092 128.181 193.734C129.916 189.562 132.807 187.476 136.855 187.476C138.631 187.476 140.179 188.158 141.501 189.521C142.13 190.15 142.72 190.867 143.27 191.672C143.911 192.611 144.499 193.67 145.033 194.849C145.975 196.892 147.105 199.7 148.421 203.275C148.46 203.381 148.499 203.487 148.539 203.594C148.568 203.673 148.597 203.753 148.626 203.832L149.679 206.744C149.604 205.323 149.564 204.24 149.556 203.496L149.556 203.492C149.556 203.416 149.555 203.344 149.555 203.275C149.555 198.568 150.163 194.802 151.377 191.976L151.407 191.907C151.43 191.855 151.453 191.803 151.476 191.751C151.585 191.516 151.699 191.291 151.818 191.075C153.147 188.676 155.118 187.476 157.733 187.476C161.162 187.476 163.516 189.521 164.796 193.61C164.954 194.109 165.102 194.619 165.241 195.14C165.411 195.781 165.566 196.438 165.707 197.112L165.713 197.142C166.382 200.358 166.717 203.951 166.717 207.922C166.717 209.563 166.612 211.236 166.403 212.94C166.277 213.969 166.113 215.009 165.91 216.061C165.782 216.73 165.637 217.404 165.478 218.082C164.916 220.595 164.069 222.843 162.936 224.827C162.486 225.615 161.991 226.361 161.451 227.066C159.551 229.544 157.073 230.783 154.016 230.783C152.157 230.783 150.526 230.122 149.122 228.8C148.63 228.309 148.166 227.778 147.728 227.206C147.319 226.671 146.932 226.1 146.57 225.494L146.556 225.471C146.236 224.935 145.935 224.372 145.652 223.782C144.826 221.98 143.847 219.564 142.714 216.533L142.705 216.511C142.672 216.42 142.638 216.329 142.603 216.238C142.526 216.029 142.448 215.818 142.369 215.604C141.708 213.787 141.191 212.424 140.82 211.515L140.882 216.533C140.882 219.796 140.716 222.44 140.386 224.464C140.268 225.169 140.109 225.819 139.908 226.415C139.892 226.463 139.875 226.511 139.858 226.558C139.66 227.118 139.423 227.628 139.149 228.087C138.926 228.461 138.677 228.802 138.403 229.11C137.453 230.225 136.008 230.783 134.067 230.783C132.043 230.783 130.391 229.544 129.11 227.066ZM171.681 199.681C172.2 198.462 172.786 197.33 173.44 196.286C174.867 194.005 176.614 192.143 178.682 190.698C181.738 188.55 185.291 187.476 189.338 187.476C193.386 187.476 196.917 188.55 199.933 190.698C200.37 190.999 200.792 191.318 201.199 191.655C202.857 193.025 204.271 194.688 205.44 196.646C205.992 197.571 206.49 198.563 206.934 199.62C207.348 200.582 207.71 201.583 208.02 202.621C208.716 204.948 209.151 207.464 209.325 210.169C209.383 211.072 209.412 211.995 209.412 212.94C209.412 214.22 209.391 215.191 209.35 215.852C209.061 220.56 208.09 224.236 206.438 226.88C204.786 229.523 202.555 230.845 199.747 230.845C197.475 230.845 195.885 230.225 194.976 228.986C194.571 228.408 194.261 227.771 194.045 227.075C193.798 226.281 193.675 225.41 193.675 224.464C193.675 223.637 193.737 222.915 193.861 222.295C193.424 222.312 192.997 222.327 192.581 222.34C190.95 222.393 189.477 222.419 188.161 222.419C187.494 222.419 186.784 222.402 186.031 222.367C185.618 222.348 185.192 222.324 184.754 222.295C184.878 222.915 184.94 223.637 184.94 224.464C184.94 225.603 184.761 226.628 184.404 227.54C184.191 228.083 183.916 228.586 183.576 229.048C182.709 230.287 181.14 230.907 178.868 230.907C176.101 230.907 173.87 229.565 172.177 226.88C171.869 226.372 171.585 225.831 171.324 225.257C170.526 223.498 169.95 221.429 169.596 219.051L169.588 219.001C169.442 218.005 169.334 216.956 169.265 215.852C169.224 215.191 169.203 214.22 169.203 212.94C169.203 211.197 169.303 209.524 169.504 207.922C169.88 204.93 170.605 202.183 171.681 199.681ZM208.469 198.976L208.465 198.961C208.266 198.268 208.167 197.496 208.167 196.646C208.167 194.333 208.952 192.515 210.521 191.194C210.65 191.086 210.783 190.98 210.922 190.877C212.481 189.723 214.702 188.899 217.584 188.406C220.723 187.869 224.833 187.6 229.913 187.6C235.035 187.6 239.186 187.869 242.366 188.406C245.416 188.921 247.744 189.796 249.35 191.032C249.386 191.06 249.421 191.087 249.456 191.115C249.488 191.141 249.521 191.167 249.553 191.194C251.164 192.515 251.969 194.333 251.969 196.646C251.969 196.939 251.956 197.223 251.93 197.499C251.712 199.789 250.589 201.488 248.562 202.593C247.55 203.137 246.244 203.583 244.645 203.93C243.762 204.123 242.79 204.285 241.728 204.417C240.475 204.574 239.098 204.689 237.596 204.762C237.698 205.987 237.768 207.434 237.807 209.102C237.831 210.132 237.843 211.246 237.843 212.444C237.843 216.822 237.596 220.333 237.1 222.977C236.646 225.579 235.84 227.52 234.684 228.8C233.527 230.04 231.916 230.659 229.851 230.659C227.827 230.659 226.278 229.998 225.205 228.676C224.131 227.355 223.387 225.393 222.974 222.791C222.561 220.189 222.355 216.74 222.355 212.444C222.355 210.163 222.393 208.087 222.47 206.217C222.491 205.717 222.514 205.232 222.54 204.762C222.152 204.743 221.771 204.722 221.4 204.698C219.495 204.578 217.814 204.395 216.356 204.149C215.588 204.02 214.882 203.873 214.238 203.709C212.173 203.13 210.645 202.284 209.654 201.168C209.109 200.556 208.714 199.825 208.469 198.976ZM251.971 209.842C251.971 209.744 251.971 209.647 251.972 209.549C251.974 209.353 251.977 209.157 251.982 208.962L251.984 208.868C252.088 205.041 252.806 201.566 254.14 198.442C254.405 197.82 254.695 197.221 255.008 196.646C256.053 194.727 257.362 193.072 258.936 191.681C259.456 191.221 260.005 190.79 260.583 190.388C263.474 188.406 267.006 187.414 271.177 187.414C276.753 187.414 280.677 188.282 282.949 190.016C285.22 191.71 286.356 193.796 286.356 196.274C286.356 197.43 286.067 198.504 285.489 199.496C285.321 199.772 285.128 200.031 284.911 200.272C284.381 200.861 283.707 201.345 282.887 201.726C282.68 201.829 282.462 201.922 282.23 202.003L282.197 202.015C281.323 202.318 280.273 202.469 279.046 202.469L277.373 202.408C277.042 202.366 276.567 202.346 275.948 202.346C274.861 202.346 273.89 202.446 273.036 202.647C272.202 202.843 271.479 203.135 270.867 203.523C269.628 204.266 268.782 205.423 268.327 206.992C269.996 206.913 271.512 206.872 272.875 206.868L272.986 206.868H273.036C274.102 206.868 275.073 206.876 275.948 206.893C276.246 206.898 276.534 206.905 276.81 206.912C276.944 206.916 277.076 206.919 277.205 206.924C277.823 206.943 278.381 206.967 278.878 206.997L279.046 207.007C279.969 207.066 280.671 207.144 281.152 207.24C282.556 207.529 283.63 208.087 284.374 208.913C284.503 209.049 284.622 209.189 284.73 209.333C285.277 210.063 285.551 210.893 285.551 211.825C285.551 212.421 285.445 212.976 285.232 213.489C285.194 213.58 285.153 213.67 285.109 213.758C284.936 214.104 284.711 214.43 284.436 214.737C283.692 215.521 282.577 216.058 281.09 216.347C280.813 216.407 280.441 216.459 279.975 216.504C279.248 216.574 278.291 216.628 277.105 216.663L276.995 216.667C276.818 216.672 276.636 216.676 276.448 216.681C276.305 216.684 276.159 216.687 276.01 216.69C275.023 216.71 273.908 216.719 272.664 216.719C270.847 216.719 269.566 216.699 268.823 216.657C269.644 218.406 270.925 219.594 272.664 220.221C273.636 220.571 274.751 220.746 276.01 220.746C276.216 220.746 276.691 220.705 277.435 220.622C278.426 220.54 279.273 220.498 279.975 220.498C280.71 220.498 281.36 220.545 281.924 220.639C281.954 220.644 281.984 220.649 282.013 220.654C282.333 220.71 282.624 220.783 282.887 220.87C284.234 221.291 285.124 222.027 285.556 223.078C285.759 223.573 285.861 224.138 285.861 224.773C285.861 226.632 284.911 228.098 283.011 229.172C281.111 230.246 277.827 230.783 273.16 230.783C267.336 230.783 262.338 229.379 258.167 226.57C254.036 223.761 251.971 218.185 251.971 209.842ZM189.152 202.655C190.284 202.655 191.222 202.919 191.966 203.446C192.364 203.727 192.706 204.083 192.994 204.514C193.719 205.565 194.126 206.903 194.214 208.527C194.227 208.753 194.233 208.985 194.233 209.223C194.233 210.131 194.191 210.813 194.109 211.267C191.961 211.185 190.33 211.143 189.214 211.143C188.182 211.143 186.55 211.185 184.32 211.267C184.196 210.524 184.134 209.801 184.134 209.099C184.134 208.678 184.154 208.275 184.195 207.888C184.337 206.53 184.73 205.385 185.373 204.452C185.65 204.051 185.975 203.717 186.348 203.451C187.091 202.92 188.026 202.655 189.152 202.655ZM79.7096 148.591C79.667 148.516 79.6247 148.441 79.5828 148.365C78.2252 149.372 76.7689 150.231 75.2277 150.951C74.7389 153.897 73.4434 156.766 70.9748 159.085L70.9692 159.09C68.1713 161.713 64.6716 163.043 60.9019 163.043C57.0857 163.043 53.5526 161.751 50.6443 159.247L50.5981 159.207L50.5526 159.167C47.9071 156.815 46.4285 153.831 45.9232 150.64C42.812 149.073 40.0692 146.924 37.8047 144.152L37.7838 144.127L37.7632 144.101C34.06 139.488 32.5264 133.847 32.5264 127.853C32.5264 122.206 33.4529 116.796 36.0739 112.341C39.0978 107.2 44.0552 104.31 50.0597 104.31C53.9707 104.31 57.877 105.535 60.934 108.568C63.9849 105.583 67.8525 104.31 71.806 104.31C77.5091 104.31 82.3428 106.882 85.4348 111.643C86.7972 110.434 88.2831 109.348 89.8877 108.391C94.3641 105.679 99.3066 104.317 104.554 104.31C109.753 104.261 114.658 105.583 119.107 108.26C121.001 109.388 122.728 110.7 124.283 112.184C125.289 110.351 126.64 108.654 128.435 107.275C131.311 105.066 134.661 104.186 137.969 104.186C142.221 104.186 146.854 105.421 150.112 109.249C153.371 105.421 158.004 104.186 162.256 104.186C165.564 104.186 168.913 105.066 171.79 107.275C173.251 108.398 174.418 109.731 175.345 111.177C176.171 110.405 177.052 109.681 177.988 109.007C182.446 105.753 187.678 104.31 193.254 104.31C197.765 104.31 202.075 105.28 206.03 107.337C210.046 109.384 213.291 112.383 215.643 116.228C218.133 120.229 219.275 124.727 219.275 129.464C219.275 133.226 218.712 136.862 217.398 140.231C216.862 141.651 216.211 143.007 215.441 144.287C215.95 145.914 216.239 147.626 216.239 149.413C216.239 153.423 214.547 156.957 211.553 159.505C208.914 161.786 205.671 163.043 202.113 163.043C200.372 163.043 198.584 162.777 196.834 162.132C195.307 161.57 193.938 160.759 192.736 159.882C189.814 162.424 186.223 163.105 183.217 163.105C179.876 163.105 176.62 162.083 173.891 159.82C172.396 158.581 171.227 157.11 170.312 155.537C169.049 156.712 167.667 157.778 166.171 158.731L166.142 158.75L166.112 158.768C161.363 161.737 155.915 163.043 150.112 163.043C144.31 163.043 138.862 161.737 134.113 158.768L134.083 158.75L134.054 158.731C131.297 156.974 128.922 154.838 126.96 152.346C124.763 155.03 122.112 157.28 119.045 159.068C114.666 161.647 109.862 162.993 104.765 163.103L104.723 163.104L104.682 163.105C99.5182 163.162 94.6371 161.865 90.1923 159.244L90.1734 159.233L90.1546 159.221C85.8185 156.631 82.3429 153.075 79.7666 148.689L79.7377 148.64L79.7096 148.591ZM76.6078 140.755C74.2776 143.011 71.2933 144.555 67.655 145.386C67.6963 145.964 67.717 146.852 67.717 148.05C67.717 150.363 67.0354 152.16 65.6724 153.44C64.3507 154.679 62.7605 155.299 60.9019 155.299C58.9193 155.299 57.1846 154.659 55.6977 153.378C54.2107 152.057 53.4673 150.281 53.4673 148.05C53.4673 146.77 53.4879 145.84 53.5292 145.262C49.4402 144.188 46.1979 142.185 43.8023 139.253C41.448 136.32 40.2708 132.52 40.2708 127.853C40.2708 122.938 41.0969 119.076 42.749 116.267C44.4012 113.459 46.8381 112.054 50.0597 112.054C52.3727 112.054 54.2107 112.756 55.5737 114.161C56.0981 114.685 56.5217 115.289 56.8443 115.972C57.3532 117.05 57.6111 118.326 57.6181 119.799L57.6183 119.861C57.6183 120.521 57.515 122.05 57.3085 124.445C57.2874 124.635 57.2677 124.816 57.2493 124.987L57.2276 125.191C57.1163 126.247 57.0607 126.928 57.0607 127.233C57.0607 127.317 57.0614 127.4 57.0627 127.483C57.0894 129.095 57.3778 130.334 57.928 131.198C58.5476 132.107 59.5389 132.561 60.9019 132.561C62.2649 132.561 63.2355 132.107 63.8138 131.198C64.3932 130.349 64.7017 129.138 64.7392 127.565C64.7418 127.456 64.7431 127.346 64.7431 127.233C64.7431 126.908 64.6917 126.248 64.589 125.254L64.5699 125.071C64.5472 124.856 64.5224 124.627 64.4953 124.383C64.2958 121.989 64.1926 120.481 64.1859 119.861L64.1855 119.799C64.1855 118.341 64.4456 117.074 64.9657 115.999C65.3002 115.307 65.7423 114.694 66.292 114.161C67.6963 112.756 69.5343 112.054 71.806 112.054C75.0277 112.054 77.4646 113.417 79.1167 116.143C79.4735 116.732 79.7917 117.364 80.0714 118.039C80.3018 118.595 80.506 119.181 80.6842 119.796C81.2913 121.892 81.5949 124.33 81.5949 127.109C81.5949 129.541 81.3157 131.739 80.7571 133.705L80.7495 133.732C80.1313 135.896 79.174 137.778 77.8776 139.376C77.4784 139.862 77.0552 140.322 76.6078 140.755ZM86.1961 122.896C86.8931 121.657 87.6888 120.514 88.5833 119.467C90.0741 117.721 91.8392 116.241 93.8785 115.028C97.1415 113.046 100.714 112.054 104.597 112.054C108.397 112.013 111.907 112.963 115.129 114.904C117.666 116.414 119.791 118.36 121.504 120.743C121.994 121.425 122.451 122.143 122.874 122.896C124.501 125.798 125.432 128.958 125.665 132.376C125.704 132.947 125.723 133.525 125.723 134.11C125.723 137.952 124.773 141.483 122.874 144.705C122.835 144.769 122.797 144.833 122.758 144.897C120.87 148.029 118.327 150.525 115.129 152.387C111.907 154.287 108.397 155.278 104.597 155.361C100.838 155.402 97.348 154.473 94.1263 152.573C90.9459 150.673 88.3851 148.071 86.4439 144.767C86.0011 143.987 85.6078 143.188 85.2637 142.371C84.1313 139.679 83.5334 136.781 83.47 133.677C83.4457 131.387 83.7517 129.198 84.3881 127.109C84.8308 125.656 85.4335 124.252 86.1961 122.896ZM130.225 117.878C130.064 118.361 129.913 118.857 129.771 119.366C128.752 123.034 128.242 127.37 128.242 132.376C128.242 132.96 128.259 133.538 128.292 134.11C128.493 137.581 129.302 140.823 130.721 143.837C130.918 144.242 131.127 144.638 131.346 145.024C133.008 147.948 135.298 150.34 138.217 152.201C141.521 154.266 145.486 155.299 150.112 155.299C154.738 155.299 158.704 154.266 162.008 152.201C164.132 150.847 165.916 149.211 167.357 147.293C168.158 146.228 168.853 145.076 169.442 143.837C170.818 140.985 171.635 137.929 171.893 134.668C171.953 133.915 171.983 133.151 171.983 132.376C171.983 128.352 171.653 124.762 170.995 121.603L170.987 121.564C170.728 120.329 170.419 119.159 170.059 118.056C170.044 118.011 170.029 117.966 170.014 117.921L170 117.878C168.678 113.913 166.097 111.93 162.256 111.93C159.241 111.93 157.072 112.818 155.75 114.594C154.914 115.718 154.342 117.008 154.035 118.462C153.857 119.306 153.768 120.206 153.768 121.162C153.768 122.358 153.846 123.693 154.004 125.165C154.074 125.827 154.161 126.516 154.263 127.233C154.594 129.464 154.759 131.343 154.759 132.871C154.759 134.895 154.408 136.63 153.706 138.075C153.045 139.521 151.847 140.244 150.112 140.244C148.419 140.244 147.221 139.521 146.519 138.075C145.817 136.63 145.466 134.895 145.466 132.871C145.466 131.343 145.631 129.464 145.961 127.233C146.064 126.516 146.151 125.827 146.221 125.165C146.378 123.693 146.457 122.358 146.457 121.162C146.457 120.206 146.368 119.306 146.19 118.462C145.883 117.008 145.311 115.718 144.475 114.594C143.153 112.818 140.984 111.93 137.969 111.93C134.128 111.93 131.547 113.913 130.225 117.878ZM175.146 146.588L175.136 146.548C174.286 143.125 173.862 139.165 173.862 134.668C173.862 133.894 173.889 133.13 173.944 132.376C174.166 129.304 174.841 126.392 175.968 123.64C176.63 122.052 177.447 120.606 178.421 119.304C179.574 117.761 180.945 116.418 182.535 115.276C185.468 113.128 189.041 112.054 193.254 112.054C196.64 112.054 199.718 112.777 202.485 114.223C205.252 115.627 207.441 117.651 209.052 120.294C210.704 122.938 211.53 125.994 211.53 129.464C211.53 132.479 211.076 135.143 210.167 137.456C209.3 139.769 208.061 141.71 206.45 143.28C207.813 145.386 208.495 147.431 208.495 149.413C208.495 151.107 207.834 152.511 206.512 153.626C205.232 154.741 203.765 155.299 202.113 155.299C201.163 155.299 200.296 155.154 199.511 154.865C198.726 154.576 197.88 154.081 196.971 153.378C196.878 153.305 196.786 153.229 196.695 153.149C196.011 152.556 195.36 151.785 194.741 150.838C194.448 150.391 194.181 149.937 193.939 149.475C193.599 148.828 193.309 148.168 193.068 147.493C191.705 147.327 190.342 146.976 188.979 146.439C189.159 147.4 189.273 148.197 189.323 148.83C189.341 149.068 189.35 149.283 189.35 149.475C189.35 151.554 188.776 153.082 187.629 154.06C187.595 154.089 187.56 154.117 187.525 154.145C186.511 154.956 185.075 155.361 183.217 155.361C179.789 155.361 177.372 153.358 175.968 149.351C175.88 149.099 175.794 148.843 175.711 148.584C175.506 147.94 175.317 147.275 175.146 146.588ZM55.4722 47.1479C55.1046 47.7567 54.746 48.3762 54.3966 49.0066V47.1479C54.3966 42.7284 53.8803 39.4448 52.8477 37.297L52.8458 37.293C51.8542 35.1479 50.0994 34.0754 47.5815 34.0754C45.3924 34.0754 43.699 35.0253 42.5012 36.9253C41.3034 38.7839 40.6632 41.2622 40.5806 44.3599C40.498 45.2273 40.4154 47.4577 40.3328 51.0511C40.2915 54.6032 40.2708 57.6803 40.2708 60.2824C40.2708 63.9584 40.3741 66.9322 40.5806 69.2039C40.8284 71.4756 41.448 73.4169 42.4393 75.0277C43.3804 76.4959 44.7847 77.295 46.6522 77.425C46.8337 77.4377 47.0196 77.444 47.2098 77.444C47.3041 77.444 47.3972 77.4426 47.4893 77.44C49.4153 77.3842 50.871 76.7453 51.8564 75.5234C52.0639 75.2578 52.2564 74.9788 52.4339 74.6865C53.1396 73.5243 53.608 72.1511 53.839 70.5669C54.0936 69.0395 54.2501 67.23 54.3085 65.1387C54.3259 64.5156 54.3346 63.8674 54.3346 63.1943C54.5093 63.5155 54.6843 63.832 54.8599 64.144C56.4317 66.9373 58.0412 69.3626 59.6885 71.42L59.8017 71.5607C60.272 72.1427 60.7454 72.6948 61.2219 73.2169C61.3216 73.3262 61.4215 73.4341 61.5214 73.5408C64.041 76.1429 66.7257 77.444 69.5756 77.444C71.2574 77.444 72.7162 77.013 73.9522 76.1511C74.1732 75.997 74.3872 75.829 74.594 75.6473C75.957 74.4495 76.6385 72.6115 76.6385 70.1333C76.6385 68.4394 76.1653 66.8206 75.2188 65.277C74.5959 64.2611 73.7681 63.2777 72.7353 62.3269C72.2863 61.9069 71.8201 61.4976 71.3368 61.0991C71.0311 60.847 70.7184 60.5993 70.3989 60.3558C68.3433 58.7895 66.0037 57.402 63.3801 56.1933C65.9789 55.2729 68.2495 54.0952 70.1919 52.6603C70.6125 52.3495 71.0177 52.0267 71.4075 51.6919C71.9641 51.2137 72.4893 50.711 72.9831 50.1837C75.4614 47.5403 76.7005 44.773 76.7005 41.8817C76.7005 40.6835 76.5012 39.5946 76.1027 38.6149L76.0902 38.5843C75.7753 37.8199 75.3385 37.1223 74.7798 36.4916C74.5538 36.2203 74.3161 35.9738 74.0666 35.7521C72.9489 34.7582 71.5964 34.2612 70.0093 34.2612C67.242 34.2612 64.4746 35.7688 61.7073 38.784C61.6255 38.8731 61.5439 38.9626 61.4627 39.0525C59.2519 41.497 57.2551 44.1954 55.4722 47.1479ZM70.0093 26.5168C65.3663 26.5168 61.439 28.5608 58.2477 31.348C57.3384 30.1715 56.2077 29.1179 54.8292 28.2745C52.4881 26.8424 49.9476 26.331 47.5815 26.331C42.6634 26.331 38.5437 28.7037 35.971 32.762C33.8163 36.1219 32.9787 40.0315 32.8463 43.9126C32.7434 45.2138 32.6646 47.6447 32.5904 50.8731L32.5894 50.9171L32.5889 50.961C32.5474 54.5332 32.5264 57.6417 32.5264 60.2824C32.5264 64.0698 32.6315 67.3037 32.868 69.9051L32.8743 69.9745L32.8819 70.0438C33.2287 73.2231 34.1384 76.3155 35.8437 79.0865L35.881 79.1472L35.9194 79.2071C38.5706 83.3429 42.8053 85.1884 47.2098 85.1884C50.8921 85.1884 54.8629 83.9895 57.7215 80.5834C60.9879 83.3574 64.9619 85.1884 69.5756 85.1884C72.7703 85.1884 75.8646 84.3084 78.5312 82.3984C80.5489 84.0545 83.1279 85.1884 86.3296 85.1884C89.6106 85.1884 93.3651 84.2404 96.1921 81.2081C98.9547 83.7586 102.421 85.1884 106.279 85.1884C111.805 85.1884 116.532 82.7798 119.86 78.4386C120.373 77.7689 120.853 77.0783 121.3 76.3682C123.129 78.2996 125.213 79.9727 127.545 81.3663L127.564 81.3776L127.583 81.3887C132.028 84.01 136.909 85.3066 142.073 85.2499L142.114 85.2494L142.156 85.2485C147.252 85.1377 152.057 83.7919 156.435 81.2138C158.944 79.7507 161.174 77.9795 163.105 75.9144C164.475 77.809 166.104 79.4983 168.019 80.9261L168.044 80.9447L168.069 80.9631C171.977 83.8293 176.502 85.1884 181.322 85.1884C184.343 85.1884 187.23 84.4771 189.918 83.197L189.953 83.1805L189.987 83.1637C190.503 82.9117 191.007 82.6406 191.498 82.3515C191.981 82.6312 192.477 82.8928 192.986 83.135C195.7 84.4274 198.609 85.1264 201.644 85.1264C206.422 85.1264 210.927 83.8112 214.817 80.9765L214.826 80.9698L214.835 80.9631C218.679 78.144 221.393 74.287 223.158 69.8191C224.918 65.3638 225.682 60.4116 225.682 55.1401C225.682 51.6282 225.15 48.0789 224.161 44.5176C223.096 40.6861 221.394 37.1746 218.911 34.1865C215.936 30.5047 211.765 28.2516 206.786 28.2516C202.886 28.2516 199.47 29.8191 196.849 32.4405L196.804 32.4853L196.764 32.5273C194.928 31.8062 193.015 31.5352 191.235 31.5352C189.597 31.5352 187.825 31.7612 186.081 32.3991C183.411 29.5895 179.898 28.1277 176.056 28.1277C170.98 28.1277 166.954 30.6731 164.135 34.1795L164.123 34.1939C163.734 34.6803 163.363 35.1801 163.01 35.6925C161.127 33.6374 158.953 31.8672 156.498 30.4045C152.049 27.7284 147.144 26.4058 141.946 26.4549C136.698 26.4621 131.755 27.8237 127.279 30.536C125.628 31.521 124.102 32.6418 122.708 33.8937C121.864 32.4121 120.787 31.0181 119.411 29.8234C116.682 27.4529 113.377 26.3929 109.997 26.3929C107.22 26.3929 104.417 27.1096 101.926 28.8114C101.001 29.4433 100.188 30.1637 99.4751 30.9442C99.4106 30.8776 99.3457 30.8115 99.2803 30.7458C96.6174 28.0211 93.1226 26.3929 89.1176 26.3929C85.6964 26.3929 82.3216 27.3006 79.3824 29.4211C79.2374 29.5257 79.0947 29.6323 78.9545 29.7408C76.467 27.6351 73.3841 26.5168 70.0093 26.5168ZM86.3296 77.444C85.2051 77.444 84.1953 77.0614 83.3004 76.2963C82.5846 75.6844 81.9422 74.8279 81.3732 73.7267C80.8249 72.63 80.3453 71.4322 79.9345 70.1333C79.4169 68.497 79.0085 66.7003 78.7092 64.7432C78.2907 62.0069 78.0353 59.3459 77.9429 56.7601L77.9399 56.6737L77.937 56.5885C77.9329 56.4615 77.9291 56.3347 77.9257 56.2081C77.913 55.7353 77.9058 55.2649 77.9041 54.7971L77.9041 54.7922L77.9037 54.5825C77.9037 49.883 78.5625 45.6494 79.8799 41.8817C80.0561 41.3777 80.2441 40.8821 80.4439 40.3948C81.2117 38.5485 82.206 37.1107 83.4269 36.0815C84.9645 34.7854 86.8614 34.1373 89.1176 34.1373C90.8937 34.1373 92.4426 34.8188 93.7643 36.1818C94.3934 36.8109 94.9829 37.528 95.5328 38.3331C96.1743 39.2723 96.762 40.3313 97.2957 41.51C98.2385 43.5527 99.3681 46.3613 100.685 49.9359C100.752 50.1197 100.82 50.3056 100.889 50.4935L101.942 53.4054C101.868 51.9837 101.827 50.9009 101.82 50.1569L101.819 50.1533C101.819 50.0773 101.818 50.0048 101.818 49.9359C101.818 45.2293 102.426 41.463 103.64 38.637L103.67 38.5679C103.693 38.5157 103.716 38.4638 103.739 38.4122C103.848 38.1773 103.962 37.952 104.082 37.7364C105.41 35.337 107.382 34.1373 109.997 34.1373C113.425 34.1373 115.779 36.1818 117.059 40.2709C117.1 40.3979 117.139 40.5257 117.178 40.6541C117.271 40.9611 117.361 41.2722 117.446 41.5873C118.469 45.3419 118.98 49.6736 118.98 54.5825C118.98 55.0003 118.973 55.42 118.96 55.8418L118.959 55.8604C118.866 58.7275 118.46 61.6884 117.741 64.7432C117.381 66.3535 116.904 67.8553 116.309 69.2484C115.607 70.8924 114.742 72.3852 113.714 73.7267C111.814 76.2049 109.336 77.444 106.279 77.444C104.421 77.444 102.789 76.7831 101.385 75.4614C100.893 74.9701 100.429 74.4386 99.9914 73.8669C99.5817 73.3316 99.1955 72.761 98.8329 72.1552L98.8189 72.1319C98.4994 71.5964 98.1982 71.0335 97.9153 70.443C97.0893 68.641 96.1098 66.2248 94.9768 63.1943L94.9684 63.1718C94.8576 62.8754 94.7453 62.5731 94.6316 62.265C93.9708 60.4476 93.4545 59.0846 93.0828 58.1759L93.1447 63.1943C93.1447 66.4573 92.9795 69.1007 92.6491 71.1245C92.5315 71.8299 92.3721 72.4803 92.1709 73.0759C92.1547 73.124 92.1381 73.1719 92.1213 73.2193C91.9229 73.7789 91.6865 74.2886 91.412 74.7483C91.1887 75.1223 90.9402 75.4633 90.6665 75.7712C89.7165 76.8864 88.2709 77.444 86.3296 77.444ZM123.587 45.0414C124.169 44.0065 124.82 43.0384 125.54 42.1372C127.119 40.161 129.028 38.5064 131.269 37.1731C134.532 35.1906 138.105 34.1993 141.988 34.1993C145.788 34.158 149.298 35.1079 152.52 37.0492C155.231 38.6621 157.472 40.7741 159.242 43.385C159.547 43.835 159.838 44.2999 160.115 44.7796L160.174 44.8815C160.204 44.9347 160.234 44.988 160.264 45.0414C161.99 48.118 162.932 51.4842 163.09 55.1401C163.106 55.5089 163.114 55.8806 163.114 56.2553C163.114 60.0965 162.164 63.628 160.264 66.8496C159.954 67.3761 159.625 67.8849 159.278 68.3761C157.503 70.8906 155.25 72.9426 152.52 74.5321C149.298 76.432 145.788 77.4233 141.988 77.5059C138.229 77.5472 134.739 76.6179 131.517 74.7179C128.837 73.1166 126.596 71.0164 124.796 68.4175C124.46 67.9329 124.14 67.4309 123.835 66.9116C123.677 66.6335 123.525 66.3529 123.38 66.07L123.341 65.9951C121.763 62.8943 120.936 59.5032 120.861 55.8216C120.856 55.4053 120.863 54.9922 120.88 54.5825C121.025 51.1717 121.928 47.9914 123.587 45.0414ZM147.006 52.6619C148.328 54.0249 148.989 55.8216 148.989 58.052C149.03 60.2411 148.369 62.0171 147.006 63.3801C145.684 64.7432 144.073 65.4247 142.174 65.4247C140.274 65.4247 138.663 64.7432 137.341 63.3801C136.019 62.0171 135.358 60.2411 135.358 58.052C135.358 55.8216 136.019 54.0249 137.341 52.6619C138.663 51.2989 140.274 50.6174 142.174 50.6174C144.073 50.6174 145.684 51.2989 147.006 52.6619ZM172.649 74.7179C170.723 73.2817 169.145 71.3681 167.916 68.9774C167.59 68.343 167.288 67.6751 167.011 66.9735C165.798 63.9047 165.142 60.332 165.042 56.2553C165.033 55.8877 165.028 55.5159 165.028 55.1401C165.028 52.4967 165.462 49.6674 166.329 46.6523C166.748 45.2628 167.246 43.9742 167.822 42.7865C168.497 41.3969 169.28 40.1453 170.17 39.0318C171.864 36.9253 173.826 35.8721 176.056 35.8721C177.572 35.8721 178.873 36.332 179.958 37.2519C180.173 37.4346 180.38 37.6355 180.579 37.8546C181.277 38.6247 181.771 39.5 182.063 40.4804L182.075 40.5227C182.275 41.213 182.376 41.9552 182.376 42.7491C182.376 43.3273 182.231 44.1121 181.942 45.1034C181.694 46.0534 181.405 47.0446 181.075 48.0772C180.825 48.7922 180.599 49.4737 180.397 50.1217L180.377 50.1848C180.085 51.1223 179.843 51.9893 179.65 52.7858C179.514 53.3298 179.406 53.8667 179.326 54.3967L179.314 54.476C179.297 54.5896 179.282 54.7029 179.268 54.8159C179.192 55.4291 179.154 56.0328 179.154 56.627C179.154 57.209 179.181 57.7401 179.237 58.2204C179.241 58.2601 179.246 58.2995 179.251 58.3386C179.372 59.3013 179.609 60.0525 179.959 60.5922C180.496 61.4182 181.157 61.8313 181.942 61.8313C182.975 61.8313 183.697 61.315 184.11 60.2824C184.373 59.6616 184.56 58.7441 184.671 57.5299C184.697 57.2453 184.718 56.9443 184.736 56.627C184.766 56.0829 184.784 55.4908 184.79 54.8508C184.791 54.702 184.792 54.5506 184.792 54.3967L184.73 50.1217C184.73 49.862 184.733 49.6065 184.738 49.3552L184.74 49.2503C184.769 48.0724 184.857 46.9879 185.005 45.9967L185.019 45.906C185.201 44.718 185.47 43.6657 185.825 42.7491C185.89 42.5792 185.959 42.414 186.031 42.2534C186.724 40.669 187.971 39.7177 189.772 39.3995C190.225 39.3196 190.713 39.2796 191.235 39.2796C191.9 39.2796 192.509 39.3425 193.062 39.4684C194.125 39.7102 194.982 40.1842 195.634 40.8904C196.137 41.4355 196.55 42.055 196.872 42.7491C197.185 43.4224 197.412 44.1659 197.555 44.9795C197.616 45.3194 197.67 45.675 197.718 46.0462C197.726 46.1033 197.733 46.1608 197.74 46.2187C197.894 47.4761 197.977 48.9083 197.987 50.5154L197.988 50.6382C197.988 50.7135 197.988 50.7892 197.988 50.8652V54.0249C197.988 54.4267 197.993 54.813 198.002 55.1839C198.005 55.3212 198.009 55.4564 198.013 55.5895C198.036 56.2815 198.076 56.9165 198.132 57.4944C198.166 57.852 198.207 58.1877 198.254 58.5017C198.26 58.5434 198.267 58.5847 198.273 58.6257C198.39 59.366 198.543 59.9801 198.732 60.4683C199.269 61.7074 200.115 62.3269 201.272 62.3269C202.057 62.3269 202.656 61.9345 203.069 61.1498C203.419 60.5129 203.634 59.6428 203.714 58.5395C203.72 58.4617 203.725 58.3828 203.729 58.3026C203.743 58.0452 203.75 57.7758 203.75 57.4944C203.75 56.7088 203.688 55.9232 203.564 55.1375C203.505 54.7667 203.432 54.3958 203.346 54.0249C203.336 53.9836 203.326 53.9423 203.316 53.901C203.112 53.0542 202.825 52.0423 202.456 50.8652C202.302 50.3773 202.135 49.861 201.953 49.3163C201.417 47.5403 201.024 46.2186 200.776 45.3512C200.707 45.0448 200.649 44.7431 200.603 44.4461L200.601 44.4328C200.511 43.8537 200.467 43.2924 200.467 42.7491C200.467 40.8078 201.086 39.197 202.325 37.9166C202.475 37.767 202.627 37.6262 202.782 37.4941C203.956 36.4953 205.29 35.996 206.786 35.996C209.223 35.996 211.267 37.0286 212.92 39.0937C214.613 41.1176 215.873 43.6165 216.699 46.5903C217.525 49.5641 217.938 52.4141 217.938 55.1401C217.938 59.6835 217.277 63.628 215.955 66.9735C214.634 70.3191 212.734 72.9006 210.255 74.7179C207.819 76.494 204.948 77.382 201.644 77.382C199.826 77.382 198.05 76.969 196.316 76.1429C195.619 75.8112 194.942 75.4128 194.286 74.9479C193.307 74.255 192.373 73.4143 191.483 72.4256C190.59 73.4182 189.644 74.2691 188.647 74.9785C187.984 75.4498 187.298 75.8586 186.589 76.2049C184.854 77.0309 183.098 77.444 181.322 77.444C178.018 77.444 175.127 76.5353 172.649 74.7179ZM104.783 143.28C106.683 143.28 108.293 142.598 109.615 141.235C110.978 139.872 111.639 138.096 111.598 135.907C111.598 133.677 110.937 131.88 109.615 130.517C108.293 129.154 106.683 128.472 104.783 128.472C102.883 128.472 101.272 129.154 99.9501 130.517C98.6284 131.88 97.9675 133.677 97.9675 135.907C97.9675 138.096 98.6284 139.872 99.9501 141.235C101.272 142.598 102.883 143.28 104.783 143.28Z" fill="black"/>
<path d="M197.714 128.658C196.64 127.584 195.36 127.047 193.873 127.047C192.428 127.047 191.147 127.584 190.032 128.658C188.917 129.732 188.359 130.971 188.359 132.376C188.359 133.78 188.917 135.019 190.032 136.093C191.147 137.125 192.428 137.642 193.873 137.642C195.36 137.642 196.64 137.125 197.714 136.093C198.83 135.019 199.387 133.78 199.387 132.376C199.387 130.93 198.83 129.691 197.714 128.658Z" fill="black"/>
<mask id="path-4-outside-1_2_192" maskUnits="userSpaceOnUse" x="204.974" y="74.8096" width="117.885" height="121.956" fill="black">
<rect fill="white" x="204.974" y="74.8096" width="117.885" height="121.956"/>
<path d="M290.862 158.864L298.636 143.164C305.688 128.923 299.693 111.234 284.932 103.729C281.353 101.899 277.458 100.776 273.478 100.426C269.497 100.077 265.512 100.507 261.758 101.693C251.224 105.332 234.703 118.774 234.703 118.774C234.068 119.179 233.529 119.709 233.118 120.331C232.706 120.954 232.432 121.655 232.311 122.393C232.19 123.131 232.225 123.89 232.414 124.625C232.603 125.359 232.941 126.054 233.409 126.666C235.262 129.119 238.779 129.647 241.301 128.032L253.615 120.143C253.963 119.912 254.377 119.79 254.804 119.79C255.231 119.791 255.653 119.914 256.016 120.146L256.055 120.165C256.622 120.573 257.028 121.16 257.2 121.82C257.372 122.481 257.298 123.172 256.992 123.769L238.716 160.68C238.384 161.348 238.197 162.079 238.167 162.829C238.137 163.579 238.263 164.332 238.539 165.043C238.815 165.754 239.234 166.408 239.772 166.965C240.309 167.521 240.954 167.97 241.666 168.282C244.495 169.53 247.756 168.296 249.071 165.642L259.995 143.58C260.161 143.242 260.399 142.942 260.692 142.701C260.986 142.46 261.329 142.282 261.701 142.178C262.072 142.074 262.465 142.047 262.853 142.097C263.242 142.148 263.618 142.275 263.959 142.472C264.593 142.854 265.064 143.451 265.276 144.144C265.488 144.836 265.425 145.572 265.101 146.204L262.697 151.06C262.366 151.727 262.179 152.458 262.149 153.208C262.118 153.958 262.245 154.712 262.521 155.423C262.797 156.134 263.216 156.787 263.753 157.344C264.291 157.901 264.935 158.349 265.647 158.662C268.477 159.909 271.738 158.676 273.052 156.022L276.65 148.756C276.816 148.418 277.054 148.118 277.347 147.877C277.641 147.636 277.984 147.458 278.356 147.354C278.727 147.25 279.12 147.223 279.508 147.273C279.896 147.324 280.273 147.451 280.613 147.648C281.248 148.03 281.719 148.627 281.931 149.32C282.142 150.012 282.08 150.748 281.756 151.38L280.645 153.625C279.331 156.279 280.331 159.611 283.034 161.114C283.713 161.49 284.459 161.731 285.227 161.821C285.994 161.911 286.767 161.849 287.499 161.639C288.23 161.429 288.906 161.074 289.484 160.597C290.062 160.121 290.531 159.531 290.862 158.864Z"/>
</mask>
<path d="M290.862 158.864L298.636 143.164C305.688 128.923 299.693 111.234 284.932 103.729C281.353 101.899 277.458 100.776 273.478 100.426C269.497 100.077 265.512 100.507 261.758 101.693C251.224 105.332 234.703 118.774 234.703 118.774C234.068 119.179 233.529 119.709 233.118 120.331C232.706 120.954 232.432 121.655 232.311 122.393C232.19 123.131 232.225 123.89 232.414 124.625C232.603 125.359 232.941 126.054 233.409 126.666C235.262 129.119 238.779 129.647 241.301 128.032L253.615 120.143C253.963 119.912 254.377 119.79 254.804 119.79C255.231 119.791 255.653 119.914 256.016 120.146L256.055 120.165C256.622 120.573 257.028 121.16 257.2 121.82C257.372 122.481 257.298 123.172 256.992 123.769L238.716 160.68C238.384 161.348 238.197 162.079 238.167 162.829C238.137 163.579 238.263 164.332 238.539 165.043C238.815 165.754 239.234 166.408 239.772 166.965C240.309 167.521 240.954 167.97 241.666 168.282C244.495 169.53 247.756 168.296 249.071 165.642L259.995 143.58C260.161 143.242 260.399 142.942 260.692 142.701C260.986 142.46 261.329 142.282 261.701 142.178C262.072 142.074 262.465 142.047 262.853 142.097C263.242 142.148 263.618 142.275 263.959 142.472C264.593 142.854 265.064 143.451 265.276 144.144C265.488 144.836 265.425 145.572 265.101 146.204L262.697 151.06C262.366 151.727 262.179 152.458 262.149 153.208C262.118 153.958 262.245 154.712 262.521 155.423C262.797 156.134 263.216 156.787 263.753 157.344C264.291 157.901 264.935 158.349 265.647 158.662C268.477 159.909 271.738 158.676 273.052 156.022L276.65 148.756C276.816 148.418 277.054 148.118 277.347 147.877C277.641 147.636 277.984 147.458 278.356 147.354C278.727 147.25 279.12 147.223 279.508 147.273C279.896 147.324 280.273 147.451 280.613 147.648C281.248 148.03 281.719 148.627 281.931 149.32C282.142 150.012 282.08 150.748 281.756 151.38L280.645 153.625C279.331 156.279 280.331 159.611 283.034 161.114C283.713 161.49 284.459 161.731 285.227 161.821C285.994 161.911 286.767 161.849 287.499 161.639C288.23 161.429 288.906 161.074 289.484 160.597C290.062 160.121 290.531 159.531 290.862 158.864Z" fill="white"/>
<path d="M290.862 158.864L298.032 162.414L298.027 162.424L290.862 158.864ZM284.932 103.729L281.306 110.861C281.3 110.858 281.295 110.855 281.289 110.852L284.932 103.729ZM261.758 101.693L259.145 94.1317C259.213 94.1084 259.28 94.0861 259.348 94.0646L261.758 101.693ZM234.703 118.774L239.752 124.979C239.515 125.172 239.268 125.351 239.011 125.515L234.703 118.774ZM233.409 126.666L239.766 121.808C239.775 121.82 239.784 121.832 239.793 121.844L233.409 126.666ZM241.301 128.032L245.616 134.769L245.616 134.769L241.301 128.032ZM253.615 120.143L258.033 126.813C257.999 126.835 257.965 126.857 257.931 126.879L253.615 120.143ZM256.016 120.146L252.466 127.315C252.21 127.188 251.961 127.048 251.72 126.894L256.016 120.146ZM256.055 120.165L259.604 112.995C259.995 113.189 260.37 113.414 260.724 113.669L256.055 120.165ZM256.992 123.769L249.823 120.219C249.84 120.186 249.856 120.153 249.873 120.12L256.992 123.769ZM238.716 160.68L245.885 164.23L245.881 164.239L238.716 160.68ZM241.666 168.282L244.881 160.957L244.893 160.962L241.666 168.282ZM259.995 143.58L267.172 147.113C267.169 147.119 267.167 147.124 267.164 147.13L259.995 143.58ZM263.959 142.472L267.957 135.543C268 135.567 268.042 135.593 268.085 135.618L263.959 142.472ZM265.101 146.204L257.932 142.655C257.949 142.621 257.965 142.588 257.983 142.554L265.101 146.204ZM262.697 151.06L269.866 154.609L269.862 154.618L262.697 151.06ZM265.647 158.662L268.863 151.336L268.875 151.342L265.647 158.662ZM276.65 148.756L283.827 152.289C283.824 152.295 283.822 152.3 283.819 152.306L276.65 148.756ZM280.613 147.648L284.612 140.719C284.655 140.743 284.697 140.769 284.74 140.794L280.613 147.648ZM281.756 151.38L274.587 147.831C274.603 147.797 274.62 147.764 274.637 147.73L281.756 151.38ZM283.034 161.114L279.157 168.112L279.145 168.105L283.034 161.114ZM283.693 155.314L291.467 139.615L305.805 146.714L298.032 162.414L283.693 155.314ZM291.467 139.615C296.495 129.46 292.316 116.458 281.306 110.861L288.557 96.5981C307.07 106.01 314.881 128.386 305.805 146.714L291.467 139.615ZM281.289 110.852C278.623 109.488 275.726 108.655 272.778 108.396L274.178 92.4571C279.191 92.8975 284.084 94.3104 288.574 96.6067L281.289 110.852ZM272.778 108.396C269.83 108.137 266.902 108.458 264.167 109.322L259.348 94.0646C264.121 92.5569 269.165 92.0166 274.178 92.4571L272.778 108.396ZM264.37 109.255C260.269 110.671 254.316 114.336 248.87 118.151C246.266 119.974 243.97 121.694 242.324 122.959C241.503 123.59 240.849 124.104 240.405 124.457C240.183 124.633 240.014 124.768 239.903 124.857C239.848 124.902 239.807 124.934 239.782 124.955C239.769 124.965 239.76 124.973 239.755 124.977C239.752 124.979 239.751 124.98 239.75 124.98C239.75 124.981 239.75 124.981 239.75 124.98C239.75 124.98 239.751 124.98 239.751 124.98C239.751 124.98 239.752 124.979 234.703 118.774C229.654 112.568 229.655 112.568 229.655 112.567C229.656 112.567 229.656 112.566 229.657 112.566C229.658 112.565 229.66 112.564 229.661 112.562C229.665 112.559 229.669 112.556 229.675 112.551C229.686 112.542 229.701 112.53 229.72 112.515C229.757 112.485 229.81 112.442 229.879 112.387C230.015 112.277 230.211 112.12 230.462 111.921C230.962 111.524 231.681 110.96 232.573 110.274C234.355 108.905 236.846 107.038 239.69 105.046C245.138 101.23 252.712 96.3543 259.145 94.1317L264.37 109.255ZM239.011 125.515C239.309 125.324 239.579 125.064 239.792 124.742L226.443 115.921C227.478 114.355 228.827 113.035 230.395 112.033L239.011 125.515ZM239.792 124.742C240.005 124.42 240.145 124.059 240.206 123.687L224.417 121.099C224.719 119.251 225.408 117.487 226.443 115.921L239.792 124.742ZM240.206 123.687C240.267 123.316 240.245 122.956 240.162 122.633L224.666 126.616C224.205 124.824 224.114 122.946 224.417 121.099L240.206 123.687ZM240.162 122.633C240.08 122.312 239.938 122.034 239.766 121.808L227.053 131.524C225.944 130.073 225.126 128.407 224.666 126.616L240.162 122.633ZM239.793 121.844C239.39 121.31 238.851 121.055 238.415 120.983C237.999 120.914 237.486 120.976 236.986 121.296L245.616 134.769C239.729 138.539 231.505 137.419 227.026 131.488L239.793 121.844ZM236.985 121.296L249.299 113.407L257.931 126.879L245.616 134.769L236.985 121.296ZM249.198 113.473C250.891 112.352 252.851 111.788 254.813 111.79L254.795 127.79C255.902 127.791 257.035 127.473 258.033 126.813L249.198 113.473ZM254.813 111.79C256.772 111.792 258.679 112.357 260.312 113.397L251.72 126.894C252.627 127.472 253.69 127.789 254.795 127.79L254.813 111.79ZM259.566 112.976L259.604 112.995L252.505 127.334L252.466 127.315L259.566 112.976ZM260.724 113.669C262.768 115.138 264.288 117.293 264.942 119.806L249.458 123.835C249.768 125.027 250.476 126.007 251.385 126.66L260.724 113.669ZM264.942 119.806C265.599 122.329 265.331 125.039 264.112 127.418L249.873 120.12C249.266 121.305 249.145 122.633 249.458 123.835L264.942 119.806ZM264.162 127.319L245.885 164.23L231.546 157.13L249.823 120.219L264.162 127.319ZM245.881 164.239C246.053 163.891 246.146 163.519 246.161 163.152L230.174 162.505C230.249 160.639 230.715 158.804 231.551 157.121L245.881 164.239ZM246.161 163.152C246.175 162.787 246.113 162.446 245.997 162.149L231.081 167.937C230.414 166.219 230.098 164.371 230.174 162.505L246.161 163.152ZM245.997 162.149C245.883 161.853 245.718 161.605 245.528 161.408L234.016 172.521C232.751 171.21 231.748 169.655 231.081 167.937L245.997 162.149ZM245.528 161.408C245.338 161.212 245.118 161.061 244.881 160.957L238.45 175.608C236.789 174.878 235.281 173.831 234.016 172.521L245.528 161.408ZM244.893 160.962C243.801 160.48 242.483 160.917 241.901 162.092L256.24 169.192C253.029 175.676 245.19 178.579 238.438 175.602L244.893 160.962ZM241.901 162.092L252.826 140.03L267.164 147.13L256.24 169.192L241.901 162.092ZM252.817 140.047C253.491 138.679 254.446 137.479 255.613 136.52L265.771 148.882C266.351 148.405 266.832 147.804 267.172 147.113L252.817 140.047ZM255.613 136.52C256.78 135.562 258.123 134.872 259.547 134.474L263.854 149.883C264.535 149.692 265.192 149.358 265.771 148.882L255.613 136.52ZM259.547 134.474C260.97 134.076 262.447 133.977 263.885 134.164L261.821 150.03C262.483 150.116 263.175 150.073 263.854 149.883L259.547 134.474ZM263.885 134.164C265.324 134.351 266.707 134.822 267.957 135.543L259.96 149.401C260.528 149.729 261.159 149.944 261.821 150.03L263.885 134.164ZM268.085 135.618C270.368 136.993 272.121 139.176 272.925 141.802L257.626 146.485C258.006 147.727 258.818 148.715 259.832 149.326L268.085 135.618ZM272.925 141.802C273.733 144.441 273.514 147.33 272.22 149.855L257.983 142.554C257.336 143.815 257.242 145.231 257.626 146.485L272.925 141.802ZM272.27 149.754L269.866 154.609L255.528 147.51L257.932 142.655L272.27 149.754ZM269.862 154.618C270.035 154.271 270.127 153.899 270.142 153.532L254.155 152.885C254.231 151.018 254.696 149.184 255.532 147.501L269.862 154.618ZM270.142 153.532C270.157 153.166 270.094 152.825 269.979 152.529L255.063 158.317C254.396 156.598 254.08 154.751 254.155 152.885L270.142 153.532ZM269.979 152.529C269.864 152.233 269.699 151.985 269.509 151.788L257.998 162.9C256.733 161.59 255.729 160.034 255.063 158.317L269.979 152.529ZM269.509 151.788C269.32 151.591 269.1 151.44 268.863 151.336L262.432 165.987C260.771 165.258 259.262 164.21 257.998 162.9L269.509 151.788ZM268.875 151.342C267.782 150.86 266.465 151.296 265.883 152.472L280.221 159.572C277.011 166.055 269.171 168.958 262.42 165.982L268.875 151.342ZM265.883 152.472L269.48 145.206L283.819 152.306L280.221 159.572L265.883 152.472ZM269.472 145.223C270.146 143.855 271.101 142.655 272.268 141.696L282.426 154.058C283.006 153.582 283.487 152.98 283.827 152.289L269.472 145.223ZM272.268 141.696C273.435 140.738 274.778 140.048 276.202 139.65L280.509 155.059C281.19 154.868 281.847 154.534 282.426 154.058L272.268 141.696ZM276.202 139.65C277.625 139.252 279.102 139.153 280.54 139.34L278.476 155.206C279.138 155.293 279.83 155.249 280.509 155.059L276.202 139.65ZM280.54 139.34C281.979 139.527 283.362 139.998 284.612 140.719L276.615 154.577C277.183 154.905 277.814 155.12 278.476 155.206L280.54 139.34ZM284.74 140.794C287.023 142.169 288.776 144.352 289.58 146.978L274.281 151.662C274.661 152.903 275.473 153.891 276.487 154.502L284.74 140.794ZM289.58 146.978C290.388 149.617 290.169 152.506 288.875 155.031L274.637 147.73C273.991 148.991 273.897 150.407 274.281 151.662L289.58 146.978ZM288.925 154.93L287.814 157.174L273.476 150.075L274.587 147.831L288.925 154.93ZM287.814 157.174C288.407 155.978 287.927 154.682 286.923 154.123L279.145 168.105C272.735 164.54 270.255 156.579 273.476 150.075L287.814 157.174ZM286.911 154.116C286.685 153.991 286.432 153.908 286.161 153.876L284.292 169.766C282.486 169.554 280.742 168.99 279.157 168.112L286.911 154.116ZM286.161 153.876C285.89 153.844 285.593 153.863 285.289 153.95L289.708 169.328C287.941 169.836 286.098 169.979 284.292 169.766L286.161 153.876ZM285.289 153.95C284.984 154.038 284.675 154.194 284.393 154.426L294.575 166.769C293.137 167.955 291.477 168.82 289.708 169.328L285.289 153.95ZM284.393 154.426C284.111 154.659 283.87 154.957 283.698 155.304L298.027 162.424C297.192 164.104 296.014 165.582 294.575 166.769L284.393 154.426Z" fill="black" mask="url(#path-4-outside-1_2_192)"/>
</svg>
